# xmcd
#
# Track frame offsets:
# 150
# 17396
# 35774
# 51691
# 63794
# 80951
# 95197
#
# Disc length: 1460 seconds
#
# Revision: 1
# Processed by: cddbd v1.4PL0 Copyright (c) Steve Scherf et al.
# Submitted via: CedeCatalogueitor 2.5 http://usuarios.lycos.es/kakasboy
#
DISCID=6005b207
DTITLE=Operacion Triunfo - Baladas
DYEAR=2002
DGENRE=
TTITLE0=El Dia Que Me Quieras
TTITLE1=Sueña
TTITLE2=Y ¿si Fuera Ella?
TTITLE3=Heroe
TTITLE4=Con Los Años Que Me Quedan
TTITLE5=Vida Loca
TTITLE6=Aprendiz
EXTD=
EXTT0=
EXTT1=
EXTT2=
EXTT3=
EXTT4=
EXTT5=
EXTT6=
PLAYORDER=
